<svg xmlns="http://www.w3.org/2000/svg" viewBox="144 -5 1353 384" width="1353" height="384" data-t="11060" data-duration="11060">
<defs><marker id="arrow-1f2328" viewBox="0 0 10 10" refX="9" refY="5" markerWidth="8" markerHeight="8" orient="auto-start-reverse"><path d="M 0 0 L 10 5 L 0 10 z" fill="#1f2328"/></marker></defs>
<rect x="144" y="-5" width="1353" height="384" fill="#ffffff"/>
<g id="title" data-shape="text" transform="translate(658.5 22)"><text font-size="18" fill="#1f2328" text-anchor="middle" dominant-baseline="central" font-family="system-ui, sans-serif"><tspan x="0" y="0">PR #165: デモサイト6つと、各ページをどう判断したかの記録を Pages に公開</tspan></text></g>
<g id="edge-0" data-shape="path" transform="translate(1005.87 102.39)"><path d="M 0 0 L -61.5 45.6 L -2.8 89.8" fill="none" stroke="#1f2328" stroke-width="1.5" marker-end="url(#arrow-1f2328)"/></g>
<g id="edge-1" data-shape="path" transform="translate(411.59 203.1)"><path d="M 0 0 L 247.4 -21.3 L 569.6 22.5" fill="none" stroke="#1f2328" stroke-width="1.5" marker-end="url(#arrow-1f2328)"/></g>
<g id="edge-2" data-shape="arrow" transform="translate(0 0)"><line x1="616.4" y1="225.65" x2="285" y2="107.2" stroke="#1f2328" stroke-width="1.5" fill="none" marker-end="url(#arrow-1f2328)"/></g>
<g id="edge-3" data-shape="arrow" transform="translate(0 0)"><line x1="327.59" y1="151.76" x2="981.2" y2="202.35" stroke="#1f2328" stroke-width="1.5" fill="none" marker-end="url(#arrow-1f2328)"/></g>
<g id="edge-4" data-shape="arrow" transform="translate(0 0)"><line x1="240.2" y1="103.2" x2="612.4" y2="202.35" stroke="#1f2328" stroke-width="1.5" fill="none" marker-end="url(#arrow-1f2328)"/></g>
<g id="edge-5" data-shape="path" transform="translate(638.92 102.6)"><path d="M 0 0 L -46.5 45.4 L -2.5 89" fill="none" stroke="#1f2328" stroke-width="1.5" marker-end="url(#arrow-1f2328)"/></g>
<g id="edge-6" data-shape="arrow" transform="translate(0 0)"><line x1="997.87" y1="271" x2="329.8" y2="107.2" stroke="#1f2328" stroke-width="1.5" fill="none" marker-end="url(#arrow-1f2328)"/></g>
<g id="examples/sites" data-shape="rect" transform="translate(285 83)"><rect x="-70" y="-18.2" width="140" height="36.4" rx="6" fill="#ffffff" stroke="#1f2328" stroke-width="1.5"/><text font-size="14" fill="#1f2328" text-anchor="middle" dominant-baseline="central" font-family="system-ui, sans-serif"><tspan x="0" y="0">examples/sites</tspan></text></g>
<g id="examples/vlmkit-intro-page" data-shape="rect" transform="translate(659 83)"><rect x="-120.4" y="-18.2" width="240.8" height="36.4" rx="6" fill="#ffffff" stroke="#1f2328" stroke-width="1.5"/><text font-size="14" fill="#1f2328" text-anchor="middle" dominant-baseline="central" font-family="system-ui, sans-serif"><tspan x="0" y="0">examples/vlmkit-intro-page</tspan></text></g>
<g id="markup/src" data-shape="rect" transform="translate(1032 83)"><rect x="-53.2" y="-18.2" width="106.4" height="36.4" rx="6" fill="#ffffff" stroke="#1f2328" stroke-width="1.5"/><text font-size="14" fill="#1f2328" text-anchor="middle" dominant-baseline="central" font-family="system-ui, sans-serif"><tspan x="0" y="0">markup/src</tspan></text></g>
<g id="src/cli" data-shape="rect" transform="translate(285 148)"><rect x="-40.6" y="-18.2" width="81.2" height="36.4" rx="6" fill="#ffffff" stroke="#1f2328" stroke-width="1.5"/><text font-size="14" fill="#1f2328" text-anchor="middle" dominant-baseline="central" font-family="system-ui, sans-serif"><tspan x="0" y="0">src/cli</tspan></text></g>
<g id=".claude" data-shape="rect" transform="translate(659 148)"><rect x="-40.6" y="-18.2" width="81.2" height="36.4" rx="6" fill="#ffffff" stroke="#1f2328" stroke-width="1.5"/><text font-size="14" fill="#1f2328" text-anchor="middle" dominant-baseline="central" font-family="system-ui, sans-serif"><tspan x="0" y="0">.claude</tspan></text></g>
<g id="docs/reports" data-shape="rect" transform="translate(1032 148)"><rect x="-61.6" y="-18.2" width="123.2" height="36.4" rx="6" fill="#ffffff" stroke="#1f2328" stroke-width="1.5"/><text font-size="14" fill="#1f2328" text-anchor="middle" dominant-baseline="central" font-family="system-ui, sans-serif"><tspan x="0" y="0">docs/reports</tspan></text></g>
<g id="fixtures/grounding-scenario" data-shape="rect" transform="translate(285 214)"><rect x="-124.6" y="-18.2" width="249.2" height="36.4" rx="6" fill="#ffffff" stroke="#1f2328" stroke-width="1.5"/><text font-size="14" fill="#1f2328" text-anchor="middle" dominant-baseline="central" font-family="system-ui, sans-serif"><tspan x="0" y="0">fixtures/grounding-scenario</tspan></text></g>
<g id="scripts" data-shape="rect" transform="translate(659 214)"><rect x="-40.6" y="-18.2" width="81.2" height="36.4" rx="6" fill="#ffffff" stroke="#1f2328" stroke-width="1.5"/><text font-size="14" fill="#1f2328" text-anchor="middle" dominant-baseline="central" font-family="system-ui, sans-serif"><tspan x="0" y="0">scripts</tspan></text></g>
<g id="core/src" data-shape="rect" transform="translate(1032 214)"><rect x="-44.8" y="-18.2" width="89.6" height="36.4" rx="6" fill="#ffffff" stroke="#1f2328" stroke-width="1.5"/><text font-size="14" fill="#1f2328" text-anchor="middle" dominant-baseline="central" font-family="system-ui, sans-serif"><tspan x="0" y="0">core/src</tspan></text></g>
<g id="markup/markup-core" data-shape="rect" transform="translate(285 280)"><rect x="-86.8" y="-18.2" width="173.6" height="36.4" rx="6" fill="#ffffff" stroke="#1f2328" stroke-width="1.5"/><text font-size="14" fill="#1f2328" text-anchor="middle" dominant-baseline="central" font-family="system-ui, sans-serif"><tspan x="0" y="0">markup/markup-core</tspan></text></g>
<g id="ci" data-shape="rect" transform="translate(659 280)"><rect x="-21" y="-18.2" width="42" height="36.4" rx="6" fill="#ffffff" stroke="#1f2328" stroke-width="1.5"/><text font-size="14" fill="#1f2328" text-anchor="middle" dominant-baseline="central" font-family="system-ui, sans-serif"><tspan x="0" y="0">ci</tspan></text></g>
<g id="tests" data-shape="rect" transform="translate(1032 280)"><rect x="-32.2" y="-18.2" width="64.4" height="36.4" rx="6" fill="#ffffff" stroke="#1f2328" stroke-width="1.5"/><text font-size="14" fill="#1f2328" text-anchor="middle" dominant-baseline="central" font-family="system-ui, sans-serif"><tspan x="0" y="0">tests</tspan></text></g>
<g id=".apm/skills" data-shape="rect" transform="translate(472 345)"><rect x="-57.4" y="-18.2" width="114.8" height="36.4" rx="6" fill="#ffffff" stroke="#1f2328" stroke-width="1.5"/><text font-size="14" fill="#1f2328" text-anchor="middle" dominant-baseline="central" font-family="system-ui, sans-serif"><tspan x="0" y="0">.apm/skills</tspan></text></g>
<g id="skills/vlmkit" data-shape="rect" transform="translate(845 345)"><rect x="-65.8" y="-18.2" width="131.6" height="36.4" rx="6" fill="#ffffff" stroke="#1f2328" stroke-width="1.5"/><text font-size="14" fill="#1f2328" text-anchor="middle" dominant-baseline="central" font-family="system-ui, sans-serif"><tspan x="0" y="0">skills/vlmkit</tspan></text></g>
<g id="token" data-shape="circle" transform="translate(0 0)" opacity="0"><circle r="6" fill="#f59e0b" stroke="#1f2328" stroke-width="1.5"/></g>
<g id="value-files-label" data-shape="text" transform="translate(1333 56)"><text font-size="12" fill="#9ca3af" text-anchor="start" dominant-baseline="central" font-family="system-ui, sans-serif"><tspan x="0" y="0">files changed:</tspan></text></g>
<g id="value-files" data-shape="text" transform="translate(1438.6 56)"><text font-size="14" fill="#f59e0b" text-anchor="start" dominant-baseline="central" font-family="system-ui, sans-serif"><tspan x="0" y="0">2235</tspan></text></g>
<g id="value-lines-label" data-shape="text" transform="translate(1333 80)"><text font-size="12" fill="#9ca3af" text-anchor="start" dominant-baseline="central" font-family="system-ui, sans-serif"><tspan x="0" y="0">lines:</tspan></text></g>
<g id="value-lines" data-shape="text" transform="translate(1381 80)"><text font-size="14" fill="#f59e0b" text-anchor="start" dominant-baseline="central" font-family="system-ui, sans-serif"><tspan x="0" y="0">+95730 −308</tspan></text></g>
</svg>