<svg xmlns="http://www.w3.org/2000/svg" viewBox="30 -5 557 750" width="557" height="750" data-t="1260" data-duration="1260">
<defs><marker id="arrow-1f2328" viewBox="0 0 10 10" refX="9" refY="5" markerWidth="8" markerHeight="8" orient="auto-start-reverse"><path d="M 0 0 L 10 5 L 0 10 z" fill="#1f2328"/></marker><marker id="arrow-f59e0b" viewBox="0 0 10 10" refX="9" refY="5" markerWidth="8" markerHeight="8" orient="auto-start-reverse"><path d="M 0 0 L 10 5 L 0 10 z" fill="#f59e0b"/></marker></defs>
<rect x="30" y="-5" width="557" height="750" fill="#ffffff"/>
<g id="title" data-shape="text" transform="translate(309 22)"><text font-size="18" fill="#1f2328" text-anchor="middle" dominant-baseline="central" font-family="system-ui, sans-serif"><tspan x="0" y="0">Import cycle: handlers → services → events → handlers</tspan></text></g>
<g id="edge-0" data-shape="arrow" transform="translate(0 0)"><line x1="254" y1="108.2" x2="254" y2="158.8" stroke="#1f2328" stroke-width="1.5" fill="none" marker-end="url(#arrow-1f2328)"/></g>
<g id="edge-1" data-shape="path" transform="translate(243.41 107.97)"><path d="M 0 0 L -39.8 75 L -56.6 170 L -48.2 361 L 3.2 527.1" fill="none" stroke="#1f2328" stroke-width="1.5" marker-end="url(#arrow-1f2328)"/></g>
<g id="edge-2" data-shape="path" transform="translate(243.41 107.97)"><path d="M 0 0 L -39.8 75 L -56.6 170 L -47.6 266 L -148.4 456 L -146.2 526.8" fill="none" stroke="#1f2328" stroke-width="1.5" marker-end="url(#arrow-1f2328)"/></g>
<g id="edge-3" data-shape="path" transform="translate(239.97 202.83)"><path d="M 0 0 L -53.2 75.2 L -90.8 147.6" fill="none" stroke="#1f2328" stroke-width="1.5" marker-end="url(#arrow-1f2328)"/></g>
<g id="edge-4" data-shape="arrow" transform="translate(0 0)"><line x1="254" y1="203.2" x2="254" y2="253.8" stroke="#1f2328" stroke-width="1.5" fill="none" marker-end="url(#arrow-1f2328)"/></g>
<g id="edge-5" data-shape="arrow" transform="translate(0 0)"><line x1="160.97" y1="393.46" x2="226.93" y2="447.02" stroke="#f59e0b" stroke-width="1.5" fill="none" marker-end="url(#arrow-f59e0b)"/></g>
<g id="edge-6" data-shape="path" transform="translate(183.71 388.69)"><path d="M 0 0 L 70.3 22.1 L 169.8 152.3" fill="none" stroke="#1f2328" stroke-width="1.5" marker-end="url(#arrow-1f2328)"/></g>
<g id="edge-7" data-shape="arrow" transform="translate(0 0)"><line x1="277.73" y1="297.47" x2="344.18" y2="351.99" stroke="#1f2328" stroke-width="1.5" fill="none" marker-end="url(#arrow-1f2328)"/></g>
<g id="edge-8" data-shape="path" transform="translate(242.91 297.95)"><path d="M 0 0 L -147.9 266.1 L -145.7 336.9" fill="none" stroke="#1f2328" stroke-width="1.5" marker-end="url(#arrow-1f2328)"/></g>
<g id="edge-9" data-shape="arrow" transform="translate(0 0)"><line x1="347.03" y1="393.46" x2="281.07" y2="447.02" stroke="#1f2328" stroke-width="1.5" fill="none" marker-end="url(#arrow-1f2328)"/></g>
<g id="edge-10" data-shape="arrow" transform="translate(0 0)"><line x1="362.77" y1="394.05" x2="263.75" y2="635.25" stroke="#1f2328" stroke-width="1.5" fill="none" marker-end="url(#arrow-1f2328)"/></g>
<g id="edge-11" data-shape="arrow" transform="translate(0 0)"><line x1="230.03" y1="488.46" x2="164.07" y2="542.02" stroke="#1f2328" stroke-width="1.5" fill="none" marker-end="url(#arrow-1f2328)"/></g>
<g id="edge-12" data-shape="path" transform="translate(261.98 489.06)"><path d="M 0 0 L 29.8 74.9 L 120.7 148" fill="none" stroke="#f59e0b" stroke-width="1.5" marker-end="url(#arrow-f59e0b)"/></g>
<g id="edge-13" data-shape="path" transform="translate(385.8 639.55)"><path d="M 0 0 L -94 -75.5 L -202.6 -170.5 L -237.3 -242" fill="none" stroke="#f59e0b" stroke-width="1.5" marker-end="url(#arrow-f59e0b)"/></g>
<g id="edge-14" data-shape="arrow" transform="translate(0 0)"><line x1="160.97" y1="583.46" x2="226.93" y2="637.02" stroke="#1f2328" stroke-width="1.5" fill="none" marker-end="url(#arrow-1f2328)"/></g>
<g id="edge-15" data-shape="arrow" transform="translate(0 0)"><line x1="128.77" y1="584.05" x2="107.75" y2="635.25" stroke="#1f2328" stroke-width="1.5" fill="none" marker-end="url(#arrow-1f2328)"/></g>
<g id="edge-16" data-shape="arrow" transform="translate(0 0)"><line x1="347.03" y1="583.46" x2="281.07" y2="637.02" stroke="#1f2328" stroke-width="1.5" fill="none" marker-end="url(#arrow-1f2328)"/></g>
<g id="server" data-shape="rect" transform="translate(254 88)"><rect x="-36.4" y="-18.2" width="72.8" height="36.4" rx="6" fill="#ffffff" stroke="#1f2328" stroke-width="1.5"/><text font-size="14" fill="#1f2328" text-anchor="middle" dominant-baseline="central" font-family="system-ui, sans-serif"><tspan x="0" y="0">server</tspan></text></g>
<g id="router" data-shape="rect" transform="translate(254 183)"><rect x="-36.4" y="-18.2" width="72.8" height="36.4" rx="6" fill="#ffffff" stroke="#1f2328" stroke-width="1.5"/><text font-size="14" fill="#1f2328" text-anchor="middle" dominant-baseline="central" font-family="system-ui, sans-serif"><tspan x="0" y="0">router</tspan></text></g>
<g id="config" data-shape="rect" transform="translate(254 659)"><rect x="-36.4" y="-18.2" width="72.8" height="36.4" rx="6" fill="#ffffff" stroke="#1f2328" stroke-width="1.5"/><text font-size="14" fill="#1f2328" text-anchor="middle" dominant-baseline="central" font-family="system-ui, sans-serif"><tspan x="0" y="0">config</tspan></text></g>
<g id="logger" data-shape="rect" transform="translate(98 659)"><rect x="-36.4" y="-18.2" width="72.8" height="36.4" rx="6" fill="#ffffff" stroke="#1f2328" stroke-width="1.5"/><text font-size="14" fill="#1f2328" text-anchor="middle" dominant-baseline="central" font-family="system-ui, sans-serif"><tspan x="0" y="0">logger</tspan></text></g>
<g id="handlers" data-shape="rect" transform="translate(137 374)"><rect x="-44.8" y="-18.2" width="89.6" height="36.4" rx="6" fill="#ffffff" stroke="#1f2328" stroke-width="1.5"/><text font-size="14" fill="#1f2328" text-anchor="middle" dominant-baseline="central" font-family="system-ui, sans-serif"><tspan x="0" y="0">handlers</tspan></text></g>
<g id="middleware" data-shape="rect" transform="translate(254 278)"><rect x="-53.2" y="-18.2" width="106.4" height="36.4" rx="6" fill="#ffffff" stroke="#1f2328" stroke-width="1.5"/><text font-size="14" fill="#1f2328" text-anchor="middle" dominant-baseline="central" font-family="system-ui, sans-serif"><tspan x="0" y="0">middleware</tspan></text></g>
<g id="auth" data-shape="rect" transform="translate(371 374)"><rect x="-28" y="-18.2" width="56" height="36.4" rx="6" fill="#ffffff" stroke="#1f2328" stroke-width="1.5"/><text font-size="14" fill="#1f2328" text-anchor="middle" dominant-baseline="central" font-family="system-ui, sans-serif"><tspan x="0" y="0">auth</tspan></text></g>
<g id="services" data-shape="rect" transform="translate(254 469)"><rect x="-44.8" y="-18.2" width="89.6" height="36.4" rx="6" fill="#ffffff" stroke="#1f2328" stroke-width="1.5"/><text font-size="14" fill="#1f2328" text-anchor="middle" dominant-baseline="central" font-family="system-ui, sans-serif"><tspan x="0" y="0">services</tspan></text></g>
<g id="events" data-shape="rect" transform="translate(410 659)"><rect x="-36.4" y="-18.2" width="72.8" height="36.4" rx="6" fill="#ffffff" stroke="#1f2328" stroke-width="1.5"/><text font-size="14" fill="#1f2328" text-anchor="middle" dominant-baseline="central" font-family="system-ui, sans-serif"><tspan x="0" y="0">events</tspan></text></g>
<g id="repo" data-shape="rect" transform="translate(137 564)"><rect x="-28" y="-18.2" width="56" height="36.4" rx="6" fill="#ffffff" stroke="#1f2328" stroke-width="1.5"/><text font-size="14" fill="#1f2328" text-anchor="middle" dominant-baseline="central" font-family="system-ui, sans-serif"><tspan x="0" y="0">repo</tspan></text></g>
<g id="validation" data-shape="rect" transform="translate(371 564)"><rect x="-53.2" y="-18.2" width="106.4" height="36.4" rx="6" fill="#ffffff" stroke="#1f2328" stroke-width="1.5"/><text font-size="14" fill="#1f2328" text-anchor="middle" dominant-baseline="central" font-family="system-ui, sans-serif"><tspan x="0" y="0">validation</tspan></text></g>
<g id="token" data-shape="circle" transform="translate(0 0)" opacity="0"><circle r="6" fill="#f59e0b" stroke="#1f2328" stroke-width="1.5"/></g>
<g id="callout-main-0-box" data-shape="rect" transform="translate(322.1 716.6)"><rect x="-185.9" y="-12.35" width="371.8" height="24.7" rx="6" fill="#f59e0b" stroke="#1f2328" stroke-width="1"/></g>
<g id="callout-main-0-text" data-shape="text" transform="translate(322.1 716.6)"><text font-size="13" fill="#1f2328" text-anchor="middle" dominant-baseline="central" font-family="system-ui, sans-serif"><tspan x="0" y="0">Cut here: events should notify, not call back</tspan></text></g>
<g id="callout-main-0-arrow" data-shape="arrow" transform="translate(322.1 716.6)"><line x1="63.7" y1="-12.35" x2="63.7" y2="-66.05" stroke="#1f2328" stroke-width="1.5" fill="none" marker-end="url(#arrow-1f2328)"/></g>
</svg>