<svg xmlns="http://www.w3.org/2000/svg" viewBox="9 -5 730 895" width="730" height="895" data-t="4760" data-duration="4760">
<defs><marker id="arrow-1f2328" viewBox="0 0 10 10" refX="9" refY="5" markerWidth="8" markerHeight="8" orient="auto-start-reverse"><path d="M 0 0 L 10 5 L 0 10 z" fill="#1f2328"/></marker></defs>
<rect x="9" y="-5" width="730" height="895" fill="#ffffff"/>
<g id="title" data-shape="text" transform="translate(286 22)"><text font-size="18" fill="#1f2328" text-anchor="middle" dominant-baseline="central" font-family="system-ui, sans-serif"><tspan x="0" y="0">vlmkit — the workspace and its dependencies</tspan></text></g>
<g id="edge-0" data-shape="arrow" transform="translate(0 0)"><line x1="94.01" y1="454.91" x2="211.67" y2="117.86" stroke="#1f2328" stroke-width="1.5" fill="none" marker-end="url(#arrow-1f2328)"/></g>
<g id="edge-1" data-shape="arrow" transform="translate(0 0)"><line x1="96.78" y1="455" x2="208.47" y2="226.59" stroke="#1f2328" stroke-width="1.5" fill="none" marker-end="url(#arrow-1f2328)"/></g>
<g id="edge-2" data-shape="arrow" transform="translate(0 0)"><line x1="150.6" y1="475" x2="277" y2="475" stroke="#1f2328" stroke-width="1.5" fill="none" marker-end="url(#arrow-1f2328)"/></g>
<g id="edge-3" data-shape="arrow" transform="translate(0 0)"><line x1="103.11" y1="455.25" x2="201.36" y2="334.85" stroke="#1f2328" stroke-width="1.5" fill="none" marker-end="url(#arrow-1f2328)"/></g>
<g id="edge-4" data-shape="arrow" transform="translate(0 0)"><line x1="150.6" y1="475" x2="452" y2="475" stroke="#1f2328" stroke-width="1.5" fill="none" marker-end="url(#arrow-1f2328)"/></g>
<g id="edge-5" data-shape="arrow" transform="translate(0 0)"><line x1="133.68" y1="456.05" x2="169.64" y2="441.45" stroke="#1f2328" stroke-width="1.5" fill="none" marker-end="url(#arrow-1f2328)"/></g>
<g id="edge-6" data-shape="arrow" transform="translate(0 0)"><line x1="133.68" y1="493.95" x2="186.44" y2="515.37" stroke="#1f2328" stroke-width="1.5" fill="none" marker-end="url(#arrow-1f2328)"/></g>
<g id="edge-7" data-shape="arrow" transform="translate(0 0)"><line x1="103.11" y1="494.75" x2="201.36" y2="615.15" stroke="#1f2328" stroke-width="1.5" fill="none" marker-end="url(#arrow-1f2328)"/></g>
<g id="edge-8" data-shape="arrow" transform="translate(0 0)"><line x1="96.78" y1="495" x2="208.47" y2="723.41" stroke="#1f2328" stroke-width="1.5" fill="none" marker-end="url(#arrow-1f2328)"/></g>
<g id="edge-9" data-shape="arrow" transform="translate(0 0)"><line x1="94.01" y1="495.09" x2="211.67" y2="832.14" stroke="#1f2328" stroke-width="1.5" fill="none" marker-end="url(#arrow-1f2328)"/></g>
<g id="edge-10" data-shape="arrow" transform="translate(0 0)"><line x1="233.85" y1="113.84" x2="469.86" y2="451.88" stroke="#1f2328" stroke-width="1.5" fill="none" marker-end="url(#arrow-1f2328)"/></g>
<g id="edge-11" data-shape="arrow" transform="translate(0 0)"><line x1="220" y1="182.8" x2="220" y2="118.2" stroke="#1f2328" stroke-width="1.5" fill="none" marker-end="url(#arrow-1f2328)"/></g>
<g id="edge-12" data-shape="arrow" transform="translate(0 0)"><line x1="229.78" y1="223" x2="341.47" y2="451.41" stroke="#1f2328" stroke-width="1.5" fill="none" marker-end="url(#arrow-1f2328)"/></g>
<g id="edge-13" data-shape="arrow" transform="translate(0 0)"><line x1="425" y1="475" x2="452" y2="475" stroke="#1f2328" stroke-width="1.5" fill="none" marker-end="url(#arrow-1f2328)"/></g>
<g id="edge-14" data-shape="arrow" transform="translate(0 0)"><line x1="251.41" y1="331.24" x2="452.88" y2="454.71" stroke="#1f2328" stroke-width="1.5" fill="none" marker-end="url(#arrow-1f2328)"/></g>
<g id="edge-15" data-shape="arrow" transform="translate(0 0)"><line x1="220" y1="400.8" x2="220" y2="118.2" stroke="#1f2328" stroke-width="1.5" fill="none" marker-end="url(#arrow-1f2328)"/></g>
<g id="edge-16" data-shape="arrow" transform="translate(0 0)"><line x1="220" y1="508.8" x2="220" y2="118.2" stroke="#1f2328" stroke-width="1.5" fill="none" marker-end="url(#arrow-1f2328)"/></g>
<g id="edge-17" data-shape="arrow" transform="translate(0 0)"><line x1="220" y1="508.8" x2="220" y2="336.2" stroke="#1f2328" stroke-width="1.5" fill="none" marker-end="url(#arrow-1f2328)"/></g>
<g id="edge-18" data-shape="arrow" transform="translate(0 0)"><line x1="249.96" y1="522.92" x2="452.12" y2="481.88" stroke="#1f2328" stroke-width="1.5" fill="none" marker-end="url(#arrow-1f2328)"/></g>
<g id="edge-19" data-shape="arrow" transform="translate(0 0)"><line x1="220" y1="617.8" x2="220" y2="118.2" stroke="#1f2328" stroke-width="1.5" fill="none" marker-end="url(#arrow-1f2328)"/></g>
<g id="edge-20" data-shape="arrow" transform="translate(0 0)"><line x1="236.11" y1="618.25" x2="334.36" y2="497.85" stroke="#1f2328" stroke-width="1.5" fill="none" marker-end="url(#arrow-1f2328)"/></g>
<g id="edge-21" data-shape="arrow" transform="translate(0 0)"><line x1="220" y1="617.8" x2="220" y2="336.2" stroke="#1f2328" stroke-width="1.5" fill="none" marker-end="url(#arrow-1f2328)"/></g>
<g id="edge-22" data-shape="arrow" transform="translate(0 0)"><line x1="251.41" y1="618.76" x2="452.88" y2="495.29" stroke="#1f2328" stroke-width="1.5" fill="none" marker-end="url(#arrow-1f2328)"/></g>
<g id="edge-23" data-shape="arrow" transform="translate(0 0)"><line x1="239.2" y1="727.37" x2="464.01" y2="497.49" stroke="#1f2328" stroke-width="1.5" fill="none" marker-end="url(#arrow-1f2328)"/></g>
<g id="edge-24" data-shape="arrow" transform="translate(0 0)"><line x1="220" y1="726.8" x2="220" y2="662.2" stroke="#1f2328" stroke-width="1.5" fill="none" marker-end="url(#arrow-1f2328)"/></g>
<g id="edge-25" data-shape="arrow" transform="translate(0 0)"><line x1="220" y1="835.8" x2="220" y2="118.2" stroke="#1f2328" stroke-width="1.5" fill="none" marker-end="url(#arrow-1f2328)"/></g>
<g id="vlmkit (cli)" data-shape="rect" transform="translate(87 475)"><rect x="-61.6" y="-18.2" width="123.2" height="36.4" rx="6" fill="#ffffff" stroke="#1f2328" stroke-width="1.5"/><text font-size="14" fill="#1f2328" text-anchor="middle" dominant-baseline="central" font-family="system-ui, sans-serif"><tspan x="0" y="0">vlmkit (cli)</tspan></text></g>
<g id="ai" data-shape="rect" transform="translate(220 94)"><rect x="-21" y="-18.2" width="42" height="36.4" rx="6" fill="#ffffff" stroke="#1f2328" stroke-width="1.5"/><text font-size="14" fill="#1f2328" text-anchor="middle" dominant-baseline="central" font-family="system-ui, sans-serif"><tspan x="0" y="0">ai</tspan></text></g>
<g id="anim" data-shape="rect" transform="translate(220 203)"><rect x="-28" y="-18.2" width="56" height="36.4" rx="6" fill="#ffffff" stroke="#1f2328" stroke-width="1.5"/><text font-size="14" fill="#1f2328" text-anchor="middle" dominant-baseline="central" font-family="system-ui, sans-serif"><tspan x="0" y="0">anim</tspan></text></g>
<g id="animation-eval" data-shape="rect" transform="translate(353 475)"><rect x="-70" y="-18.2" width="140" height="36.4" rx="6" fill="#ffffff" stroke="#1f2328" stroke-width="1.5"/><text font-size="14" fill="#1f2328" text-anchor="middle" dominant-baseline="central" font-family="system-ui, sans-serif"><tspan x="0" y="0">animation-eval</tspan></text></g>
<g id="capture" data-shape="rect" transform="translate(220 312)"><rect x="-40.6" y="-18.2" width="81.2" height="36.4" rx="6" fill="#ffffff" stroke="#1f2328" stroke-width="1.5"/><text font-size="14" fill="#1f2328" text-anchor="middle" dominant-baseline="central" font-family="system-ui, sans-serif"><tspan x="0" y="0">capture</tspan></text></g>
<g id="core" data-shape="rect" transform="translate(486 475)"><rect x="-28" y="-18.2" width="56" height="36.4" rx="6" fill="#ffffff" stroke="#1f2328" stroke-width="1.5"/><text font-size="14" fill="#1f2328" text-anchor="middle" dominant-baseline="central" font-family="system-ui, sans-serif"><tspan x="0" y="0">core</tspan></text></g>
<g id="generate" data-shape="rect" transform="translate(220 421)"><rect x="-44.8" y="-18.2" width="89.6" height="36.4" rx="6" fill="#ffffff" stroke="#1f2328" stroke-width="1.5"/><text font-size="14" fill="#1f2328" text-anchor="middle" dominant-baseline="central" font-family="system-ui, sans-serif"><tspan x="0" y="0">generate</tspan></text></g>
<g id="heal" data-shape="rect" transform="translate(220 529)"><rect x="-28" y="-18.2" width="56" height="36.4" rx="6" fill="#ffffff" stroke="#1f2328" stroke-width="1.5"/><text font-size="14" fill="#1f2328" text-anchor="middle" dominant-baseline="central" font-family="system-ui, sans-serif"><tspan x="0" y="0">heal</tspan></text></g>
<g id="markup" data-shape="rect" transform="translate(220 638)"><rect x="-36.4" y="-18.2" width="72.8" height="36.4" rx="6" fill="#ffffff" stroke="#1f2328" stroke-width="1.5"/><text font-size="14" fill="#1f2328" text-anchor="middle" dominant-baseline="central" font-family="system-ui, sans-serif"><tspan x="0" y="0">markup</tspan></text></g>
<g id="mcp" data-shape="rect" transform="translate(220 747)"><rect x="-23.8" y="-18.2" width="47.6" height="36.4" rx="6" fill="#ffffff" stroke="#1f2328" stroke-width="1.5"/><text font-size="14" fill="#1f2328" text-anchor="middle" dominant-baseline="central" font-family="system-ui, sans-serif"><tspan x="0" y="0">mcp</tspan></text></g>
<g id="plan" data-shape="rect" transform="translate(220 856)"><rect x="-28" y="-18.2" width="56" height="36.4" rx="6" fill="#ffffff" stroke="#1f2328" stroke-width="1.5"/><text font-size="14" fill="#1f2328" text-anchor="middle" dominant-baseline="central" font-family="system-ui, sans-serif"><tspan x="0" y="0">plan</tspan></text></g>
<g id="token" data-shape="circle" transform="translate(0 0)" opacity="0"><circle r="6" fill="#f59e0b" stroke="#1f2328" stroke-width="1.5"/></g>
<g id="value-n-label" data-shape="text" transform="translate(588 56)"><text font-size="12" fill="#9ca3af" text-anchor="start" dominant-baseline="central" font-family="system-ui, sans-serif"><tspan x="0" y="0">packages so far:</tspan></text></g>
<g id="value-n" data-shape="text" transform="translate(708 56)"><text font-size="14" fill="#f59e0b" text-anchor="start" dominant-baseline="central" font-family="system-ui, sans-serif"><tspan x="0" y="0">11</tspan></text></g>
</svg>